<svg xmlns="http://www.w3.org/2000/svg" viewBox="0 0 690.94 255.89"><defs><style>.cls-1{fill:#9e005d;}.cls-2{fill:#740046;}.cls-3{fill:#fff;}.cls-4{fill:#bfdbe2;}.cls-5{fill:#9ab9c1;}.cls-6{fill:#cbe6ec;}.cls-7{fill:#e0f0f4;}.cls-8{fill:#679ba8;}</style></defs><title>libro</title><g id="Capa_2" data-name="Capa 2"><g id="Capa_1-2" data-name="Capa 1"><g id="libro"><path class="cls-1" d="M684.7,240c-11.52-16.7-95.88-122-95.88-122l-243.35,7.41L102.12,118S17.77,223.31,6.25,240s-5.89,17.1,7,15,246.07-26.75,262.12-29.22,16.5-2.27,9.46,7.82,41.15,13,60.65,13,67.7-2.95,60.66-13-6.59-10.29,9.46-7.82S664.83,252.88,677.71,255,696.22,256.7,684.7,240Z"/><path class="cls-2" d="M665.88,220.49,348.63,173.83,48,198,9,248.65s107.8-10.93,178.75-20c73.18-9.33,95.39-12.43,101.57-7.09,9.69,8.36-10.47,14.51,23,18,63.42,6.65,87.09-5.15,85-7.88-14-18.66,53.86-10.15,97.7-5.22s186.64,22.13,186.64,22.13Z"/><path class="cls-3" d="M345.46,125.39V187c-21.9.6-44.64,38.19-44.64,38.19s-20.11-20.34-84.31-11.32S47,241,18.18,239.55c0,0,13.73-25.48,9.74-60.57l34.17-39c22.65-25.94,48.39-55.43,49.08-56.58C112.42,81.37,345.46,125.39,345.46,125.39Z"/><path class="cls-4" d="M345.46,187c-7,.2-14,4.16-20.42,9.42-13.66,11.33-24.22,28.77-24.22,28.77s-20.11-20.34-84.31-11.32S47,241,18.18,239.55c0,0,7.57-14,9.81-35.62.33-2.93.52-6,.62-9.22A112.26,112.26,0,0,0,27.92,179c33.48-1.45,85.72-12.81,150.74-28.9S307.66,139.08,345.46,187Z"/><path class="cls-3" d="M672.77,239.55C643.93,241,538.59,222.93,474.4,213.84s-84.27,11.32-84.27,11.32S367.35,187.57,345.46,187V125.39s233.06-44,234.28-42c.66,1,23.47,27.25,45.06,51.94C644.39,157.81,663,179,663,179,659,214.07,672.77,239.55,672.77,239.55Z"/><path class="cls-4" d="M345.47,187c21.89.59,44.67,38.18,44.67,38.18s20.08-20.34,84.27-11.32S643.94,241,672.78,239.54c0,0-13.76-25.48-9.77-60.57-33.45-1.45-85.69-12.81-150.74-28.9S383.26,139.07,345.47,187Z"/><path class="cls-4" d="M672.77,239.55C643.93,241,538.59,222.93,474.4,213.84s-84.27,11.32-84.27,11.32-9.65-15.93-22.45-27.22c-6.85-6.06-14.59-10.77-22.22-11,37.79-47.89,101.78-53,166.8-36.89S629.54,177.53,663,179a114.63,114.63,0,0,0,1,32.75C667,228.82,672.77,239.55,672.77,239.55Z"/><path class="cls-5" d="M345.46,125.39V187c-38.22-45.06-91.45-53.35-136.68-55.36C173.23,130,95.81,139,62.09,140c22.65-25.94,48.39-55.43,49.08-56.58C112.42,81.37,345.46,125.39,345.46,125.39Z"/><path class="cls-3" d="M345.46,108.93v78C275.57,93.85,48,107.87,48,107.87L83.75,83.42l43.88-30.06C265.07,44.74,345.46,108.93,345.46,108.93Z"/><path class="cls-5" d="M345.46,108.93v78c-30.55-41.34-81.35-72.22-148.7-89.2C154,87,110.12,84.1,83.75,83.42l43.88-30.06C265.07,44.74,345.46,108.93,345.46,108.93Z"/><path class="cls-3" d="M345.46,108.93v78a287.68,287.68,0,0,0-78.68-74.45C172.9,52.7,72.1,66.3,72.1,66.3l54.15-41.22s93.62-4.47,164.86,35.49C312.18,72.39,331.3,88.09,345.46,108.93Z"/><path class="cls-5" d="M624.8,135.36C560.05,134.27,497.61,121,442.27,132c-62.12,12.38-96.81,55-96.81,55V125.39s233.06-44,234.28-42C580.4,84.47,603.21,110.67,624.8,135.36Z"/><path class="cls-3" d="M644.79,93.49s-229.32.36-299.3,93.42a.09.09,0,0,0,0,.06v-78s82.42-77,219.86-68.31L598,62.38Z"/><path class="cls-5" d="M598,62.38c-60.9,9.64-139.74,34-182.07,61.82-58.17,38.29-69.8,61.3-70.45,62.71a.09.09,0,0,0,0,.06v-78s82.42-77,219.86-68.31Z"/><path class="cls-3" d="M630.86,41.61S508.47,42.86,407,123a321.32,321.32,0,0,0-61.58,64v-78A211.19,211.19,0,0,1,384.2,66.3C448.62,11.78,532.4,0,532.4,0Z"/><path class="cls-6" d="M345.46,108.93v78a302.33,302.33,0,0,0-22.13-27,281.24,281.24,0,0,0-56.55-47.43l24.33-51.95c15.86,8.89,30.61,20,42.95,33.81A132.45,132.45,0,0,1,345.46,108.93Z"/><path class="cls-7" d="M407,123a321.32,321.32,0,0,0-61.58,64v-78A211.19,211.19,0,0,1,384.2,66.3Z"/><path class="cls-5" d="M360.13,220.49c.13,0,.08-.08-.13-.24C360,220.39,360.08,220.49,360.13,220.49Z"/><path class="cls-5" d="M345.46,108.93v78a302.33,302.33,0,0,0-22.13-27c3.39-20.64,7.54-45.72,10.73-65.57A132.45,132.45,0,0,1,345.46,108.93Z"/><path class="cls-5" d="M325,196.39s-47.76-26.93-128.28-19.78c-56.16,5-119.33,26-168.77,27.32.33-2.93.52-6,.62-9.22a461.35,461.35,0,0,0,77.49-11.19C199.1,161.5,288.47,143.36,325,196.39Z"/><path class="cls-8" d="M345.47,187c-21.89.59-44.67,38.21-44.67,38.21s4.34,1.66,11.06,3.51c7.33-15.25,22.8-29.89,33.61-29.89s26.28,14.64,33.61,29.89c6.72-1.85,11.06-3.51,11.06-3.51S367.37,187.55,345.47,187Z"/><path class="cls-5" d="M672.77,239.55C643.93,241,538.59,222.93,474.4,213.84s-84.27,11.32-84.27,11.32-9.65-15.93-22.45-27.22c12.47-10,37.85-21.89,88.18-20.64,78,1.91,105,26.76,208.15,34.43C667,228.82,672.77,239.55,672.77,239.55Z"/></g></g></g></svg>